<svg xmlns="http://www.w3.org/2000/svg" xmlns:xlink="http://www.w3.org/1999/xlink" viewBox="0 0 2190 877.49"><defs><style>.cls-1{fill:#2e3190;}.cls-2{fill:url(#linear-gradient);}.cls-3{fill:url(#linear-gradient-2);}.cls-4{fill:url(#linear-gradient-3);}.cls-5{fill:url(#linear-gradient-4);}</style><linearGradient id="linear-gradient" x1="657.14" y1="312.52" x2="1510.9" y2="312.52" gradientUnits="userSpaceOnUse"><stop offset="0" stop-color="#1c89ff"/><stop offset="1" stop-color="#6c3ff0"/></linearGradient><linearGradient id="linear-gradient-2" x1="657.14" y1="295.35" x2="1510.9" y2="295.35" xlink:href="#linear-gradient"/><linearGradient id="linear-gradient-3" x1="657.14" y1="226.4" x2="1510.9" y2="226.4" xlink:href="#linear-gradient"/><linearGradient id="linear-gradient-4" x1="657.14" y1="497.3" x2="1510.9" y2="497.3" xlink:href="#linear-gradient"/></defs><g id="Ebene_2" data-name="Ebene 2"><g id="Layer_1" data-name="Layer 1"><path class="cls-1" d="M0,842.51H27c.59,6.85,5.25,10.34,14,10.34,7.88,0,12.54-3.06,12.54-7.72,0-5.25-4.81-8-17.49-10.06-20.7-3.21-34.84-11.22-34.84-30.76C1.17,783.76,17.5,772,40.09,772S77.56,784.63,79,805H52.48c-.87-6-5.25-9.18-12.68-9.18s-11.67,2.77-11.67,7.72,4.23,7.15,17.06,9.19c21.29,3.06,35.72,12,35.72,31.48,0,21.29-17.06,32.8-39.95,32.8C16.62,877.05,1,864.81,0,842.51Z"/><path class="cls-1" d="M188.77,773.55h22.16V875.6H183.52V846.15l.29-24L165,849.5H152l-19-27.55.44,24.2V875.6h-27.4V773.55h22.3l30.32,44Z"/><path class="cls-1" d="M295.77,773.55l37.17,99v3.06H304.51l-4.81-15.75H266.75l-5.1,15.75H233.52v-3.06l37-99Zm-2.48,64.58-10.06-28.86-10.06,28.86Z"/><path class="cls-1" d="M437,872.54v3.06H407l-24.19-36.16V875.6H355.53V773.55H394.3c23.91,0,38.34,13,38.34,34,0,14.58-7.14,25.36-19.68,30.18Zm-54.38-51.9h10.94c7.42,0,11.8-3.79,11.8-10.93s-4.38-11.08-11.8-11.08H382.64Z"/><path class="cls-1" d="M530.59,773.55v25.08H505.08v77H477.54v-77H451.88V773.55Z"/><path class="cls-1" d="M687,773.55h22.16V875.6h-27.4V846.15l.29-24-18.81,27.4h-13l-19-27.55.44,24.2V875.6h-27.4V773.55h22.3l30.33,44Z"/><path class="cls-1" d="M767.75,851.25h40.82V875.6H740.64V773.55H807.4v23.91H767.75v15.31h36.59v23.47H767.75Z"/><path class="cls-1" d="M908.57,773.55v25.08H883.06v77H855.51v-77H829.85V773.55Z"/><path class="cls-1" d="M1014.84,872.54v3.06h-30l-24.19-36.16V875.6H933.35V773.55h38.77c23.91,0,38.34,13,38.34,34,0,14.58-7.14,25.36-19.68,30.18Zm-54.38-51.9H971.4c7.43,0,11.8-3.79,11.8-10.93s-4.37-11.08-11.8-11.08H960.46Z"/><path class="cls-1" d="M1075.91,851.54h14.87V875.6h-57.29V851.54h14.86V797.17h-14.57V773.55h56.71v23.62h-14.58Z"/><path class="cls-1" d="M1112.93,824.58c0-30.76,22-52.92,52.62-52.92,26.82,0,47.23,16.76,51.75,42.42h-27.7c-3.35-9.91-12.39-16.18-23.47-16.18-14.58,0-25.07,11.08-25.07,26.68s10.49,26.67,25.07,26.67c11.37,0,20.7-6.7,23.91-17.2h27.55c-4.23,26.24-24.78,43.44-52,43.44C1134.94,877.49,1112.93,855.33,1112.93,824.58Z"/><path class="cls-1" d="M1237.56,842.51h27c.58,6.85,5.25,10.34,14,10.34,7.88,0,12.54-3.06,12.54-7.72,0-5.25-4.81-8-17.49-10.06-20.71-3.21-34.84-11.22-34.84-30.76,0-20.55,16.32-32.36,38.92-32.36,22.45,0,37.47,12.68,38.92,33.09H1290c-.88-6-5.25-9.18-12.68-9.18s-11.67,2.77-11.67,7.72,4.23,7.15,17.06,9.19c21.29,3.06,35.72,12,35.72,31.48,0,21.29-17.06,32.8-40,32.8C1254.18,877.05,1238.58,864.81,1237.56,842.51Z"/><path class="cls-1" d="M1421.52,850.09h41.83V875.6h-69.24V773.55h27.41Z"/><path class="cls-1" d="M1482.44,824.58c0-30.76,22.45-52.92,53.94-52.92,31.34,0,53.79,22.16,53.79,52.92s-22.45,52.91-53.79,52.91C1504.89,877.49,1482.44,855.33,1482.44,824.58Zm79.6,0c0-15.6-10.79-26.68-25.66-26.68s-25.8,11.08-25.8,26.68,10.93,26.67,25.8,26.67S1562,840.17,1562,824.58Z"/><path class="cls-1" d="M1717,819c1.6,34.84-20.27,58.45-52.48,58.45-31,0-53.06-22-53.06-52.91s21.86-52.92,52.48-52.92c26.38,0,46.65,15.3,51.75,39.07h-27.84c-4.53-8.6-12.25-13-22.46-13-15.3,0-25.94,10.93-25.94,27s10.2,26.82,26.38,26.82c10.06,0,17.79-4.08,21.72-12.53H1660V819Z"/><path class="cls-1" d="M1821.94,846.3c0,17.49-13.27,29.3-33.82,29.3h-45V773.55h44.31c18.08,0,30.47,11.08,30.47,27.7a26,26,0,0,1-9.48,20.55A28.16,28.16,0,0,1,1821.94,846.3ZM1769.17,796v16.33H1783c5.68,0,8.89-2.92,8.89-8S1788.7,796,1783,796Zm16.62,56.13c5.68,0,9-3.65,9-9.19s-3.36-9.18-9-9.18h-16.62v18.37Z"/><path class="cls-1" d="M1842.2,824.58c0-30.76,22.44-52.92,53.93-52.92,31.34,0,53.8,22.16,53.8,52.92s-22.46,52.91-53.8,52.91C1864.64,877.49,1842.2,855.33,1842.2,824.58Zm79.59,0c0-15.6-10.79-26.68-25.66-26.68s-25.8,11.08-25.8,26.68,10.94,26.67,25.8,26.67S1921.79,840.17,1921.79,824.58Z"/><path class="cls-1" d="M1971.2,824.58c0-30.76,22.45-52.92,53.94-52.92,31.34,0,53.79,22.16,53.79,52.92s-22.45,52.91-53.79,52.91C1993.65,877.49,1971.2,855.33,1971.2,824.58Zm79.6,0c0-15.6-10.79-26.68-25.66-26.68s-25.8,11.08-25.8,26.68,10.93,26.67,25.8,26.67S2050.8,840.17,2050.8,824.58Z"/><path class="cls-1" d="M2156.32,823.55l33.68,49v3.06h-31.2l-26-39.65V875.6H2105.3V773.55h27.55v39.36l25.22-39.36H2188v3.07Z"/><polygon class="cls-2" points="1226.05 205.42 1205.97 205.42 1193.59 205.42 1170.82 205.42 1053.16 407.39 1081.19 419.63 1202.15 211.97 1226.05 205.42"/><polygon class="cls-3" points="1128.9 205.42 1107.29 205.42 1096.44 205.42 1067.32 205.42 970.65 371.37 1002.51 385.28 1103.17 212.48 1128.9 205.42"/><path class="cls-4" d="M688.82,442.21a35.53,35.53,0,0,1,20.33,10.59L756,364l75.27-33.13,19.5-33.58,23.63-6.48H854.52l0,0H753.21l81.54-140.27,165.08,0-32,54.85H866.32L848.6,235.83H950.16L864.84,382.09l27.74-12.6a35.65,35.65,0,0,1,37.3-37.21l105.88-181.74h265.71l-169.63,291.2,10.77,4.71a36.56,36.56,0,0,1,3.64-3.27,35.83,35.83,0,0,1,26.72-6.65c.41.06.78.22,1.18.3l168.1-286.29h63.53L1317,303l-10.57,18.15-12.17,20.89,23.53-20.89h89.09l-15.94,27.35L1486.45,302a36.33,36.33,0,0,1,.3-5.88,36,36,0,0,1,33.8-30.59c-4.62-16.45-13.28-32.63-26-48.71a173.69,173.69,0,0,1-25-44.6c-20.76-53.77-59.81-84.27-115.17-96.68-10.86-2.44-22.49-7.53-30.68-14.85-43.63-39-93.26-52-150.43-40a53.36,53.36,0,0,1-31.18-3.34c-49.29-22.6-98-23-147.77-1.63A96.87,96.87,0,0,1,958,23.25c-67.46.68-121.78,25.69-160.83,82.09-5.46,7.89-14.4,14.65-23.21,18.71-51.36,23.67-80.8,62.37-86.35,119.22a70.75,70.75,0,0,1-9.57,28.59c-33.71,56.16-36.82,112-1.28,168.66.37.59.66,1.28,1,1.9A36.3,36.3,0,0,1,688.82,442.21Z"/><path class="cls-5" d="M1494.74,324.29,1203,466.48a35.88,35.88,0,1,1-71,1.2L956.17,390.91a36.3,36.3,0,0,1-6.28,6.1,35.74,35.74,0,0,1-21.3,7.05,36.87,36.87,0,0,1-5.43-.41,35.53,35.53,0,0,1-21.75-12.15L719.17,474.31a35.71,35.71,0,0,1-23.93,37.46c1.11,2.46,2.13,5,3.39,7.34l0,0,.25.39c.12.22.2.45.31.66l.09-.05c1.95,3,8.26,12.62,13.45,19.63l-.11.07c.25.29.53.54.78.83l.42.58h.11c21.57,24.94,53.27,41,91.2,44.28,34.19,3,67.94,10.87,103.82,16.86-2.55,17.82-6.18,31.2-5.62,44.4.27,6.46,8.32,12.59,12.85,18.87,10.78,8.44,56.49,3.24,75.91.93,6.21-.74,17.48-9.17,22.48-16.86,18.53-28.49,34.52-58.66,53.56-86.77,2.44-3.61,7.86-6.49,13.58-8.11,0,0,45.23,21.54,103.73-8.59,6.87-2.1,13.74-4.44,20.57-7.24,11.59-4.74,26-5.93,38.57-4.34,56,7.09,107.88,1.32,151.32-39.38,4.89-4.58,12.17-7.18,18.8-9.26,52.5-16.49,77.22-46.44,83.67-100.92,0,0,12.44-31.46,18-48.29A35.61,35.61,0,0,1,1494.74,324.29Z"/><path class="cls-1" d="M928.52,384.3a16.53,16.53,0,0,1-2.42-.18,16.23,16.23,0,0,1,2.37-32.28,15.43,15.43,0,0,1,2.44.19,16.22,16.22,0,0,1-2.39,32.27Z"/><path class="cls-1" d="M940.65,369.9h0a12.29,12.29,0,0,0-10.32-14,12.91,12.91,0,0,0-1.85-.14,12.28,12.28,0,1,0,12.17,14.11Z"/><path class="cls-1" d="M1167.64,488.34a16.53,16.53,0,0,1-2.42-.18,16.23,16.23,0,0,1,2.37-32.28,15.55,15.55,0,0,1,2.45.19,16.21,16.21,0,0,1,13.63,18.45,16.33,16.33,0,0,1-16,13.82Z"/><path class="cls-1" d="M1179.77,473.94a12.29,12.29,0,0,0-10.31-14,13.16,13.16,0,0,0-1.86-.14,12.3,12.3,0,0,0-12.12,10.47,12.28,12.28,0,0,0,24.29,3.64Z"/><path class="cls-1" d="M683.48,494a16.29,16.29,0,0,1-2.41-.18,16.23,16.23,0,0,1,2.37-32.28,15.43,15.43,0,0,1,2.44.19,16.23,16.23,0,0,1-2.4,32.27Z"/><path class="cls-1" d="M695.61,479.62a12.29,12.29,0,0,0-10.31-14,12.94,12.94,0,0,0-1.86-.14A12.3,12.3,0,0,0,671.33,476a12.28,12.28,0,1,0,24.28,3.64Z"/><path class="cls-1" d="M1522.34,317.64a16.29,16.29,0,0,1-2.41-.18,16.23,16.23,0,0,1,2.37-32.28,15.43,15.43,0,0,1,2.44.19,16.22,16.22,0,0,1-2.4,32.27Z"/><path class="cls-1" d="M1534.48,303.24h0a12.29,12.29,0,0,0-10.32-14,12.94,12.94,0,0,0-1.86-.14,12.28,12.28,0,1,0,12.18,14.11Z"/></g></g></svg>