<svg xmlns="http://www.w3.org/2000/svg" xmlns:xlink="http://www.w3.org/1999/xlink" version="1.1" width="1000" height="1000" viewBox="0 0 1000 1000" xml:space="preserve">
<desc>Created with Fabric.js 3.5.0</desc>
<defs>
</defs>
<rect x="0" y="0" width="100%" height="100%" fill="rgba(255,255,255,0)"/>
<g transform="matrix(1.0876 0 0 1.0876 499.9703 626.7243)" id="416113">
<g style="" vector-effect="non-scaling-stroke">
		<g transform="matrix(1 0 0 1 44.6 -126.245)" id="Layer_1">
<linearGradient id="SVGID_37" gradientUnits="userSpaceOnUse" gradientTransform="matrix(1 0 0 1 -1139.6 -312.5)" x1="657.14" y1="312.52" x2="1510.9" y2="312.52">
<stop offset="0%" style="stop-color:rgb(28,137,255);stop-opacity: 1"/>
<stop offset="100%" style="stop-color:rgb(108,63,240);stop-opacity: 1"/>
</linearGradient>
<polygon style="stroke: none; stroke-width: 1; stroke-dasharray: none; stroke-linecap: butt; stroke-dashoffset: 0; stroke-linejoin: miter; stroke-miterlimit: 4; is-custom-font: none; font-file-url: none; fill: url(#SVGID_37); fill-rule: nonzero; opacity: 1;" points="86.4,-107.1 66.4,-107.1 54,-107.1 31.2,-107.1 -86.4,94.9 -58.4,107.1 62.6,-100.5 86.4,-107.1 "/>
</g>
		<g transform="matrix(1 0 0 1 -45.25 -143.395)" id="Layer_1">
<linearGradient id="SVGID_38" gradientUnits="userSpaceOnUse" gradientTransform="matrix(1 0 0 1 -1049.75 -295.35)" x1="657.14" y1="295.35" x2="1510.9" y2="295.35">
<stop offset="0%" style="stop-color:rgb(28,137,255);stop-opacity: 1"/>
<stop offset="100%" style="stop-color:rgb(108,63,240);stop-opacity: 1"/>
</linearGradient>
<polygon style="stroke: none; stroke-width: 1; stroke-dasharray: none; stroke-linecap: butt; stroke-dashoffset: 0; stroke-linejoin: miter; stroke-miterlimit: 4; is-custom-font: none; font-file-url: none; fill: url(#SVGID_38); fill-rule: nonzero; opacity: 1;" points="79.15,-89.95 57.55,-89.95 46.65,-89.95 17.55,-89.95 -79.15,76.05 -47.25,89.95 53.45,-82.85 79.15,-89.95 "/>
</g>
		<g transform="matrix(1 0 0 1 -8.9631 -212.2992)" id="Layer_1">
<linearGradient id="SVGID_39" gradientUnits="userSpaceOnUse" gradientTransform="matrix(1 0 0 1 0 0)" x1="657.14" y1="226.4" x2="1510.9" y2="226.4">
<stop offset="0%" style="stop-color:rgb(28,137,255);stop-opacity: 1"/>
<stop offset="100%" style="stop-color:rgb(108,63,240);stop-opacity: 1"/>
</linearGradient>
<path style="stroke: none; stroke-width: 1; stroke-dasharray: none; stroke-linecap: butt; stroke-dashoffset: 0; stroke-linejoin: miter; stroke-miterlimit: 4; is-custom-font: none; font-file-url: none; fill: url(#SVGID_39); fill-rule: nonzero; opacity: 1;" transform=" translate(-1086.0369, -226.4457)" d="M 688.8 442.2 a 35.5 35.5 0 0 1 20.3 10.6 L 756 364 l 75.3 -33.1 l 19.5 -33.6 l 23.6 -6.5 H 854.5 l 0 0 H 753.2 l 81.5 -140.3 l 165.1 0 l -32 54.9 H 866.3 L 848.6 235.8 H 950.2 L 864.8 382.1 l 27.7 -12.6 a 35.6 35.6 0 0 1 37.3 -37.2 l 105.9 -181.7 h 265.7 l -169.6 291.2 l 10.8 4.7 a 36.6 36.6 0 0 1 3.6 -3.3 a 35.8 35.8 0 0 1 26.7 -6.7 c 0.4 0.1 0.8 0.2 1.2 0.3 l 168.1 -286.3 h 63.5 L 1317 303 l -10.6 18.1 l -12.2 20.9 l 23.5 -20.9 h 89.1 l -15.9 27.4 L 1486.5 302 a 36.3 36.3 0 0 1 0.3 -5.9 a 36 36 0 0 1 33.8 -30.6 c -4.6 -16.4 -13.3 -32.6 -26 -48.7 a 173.7 173.7 0 0 1 -25 -44.6 c -20.8 -53.8 -59.8 -84.3 -115.2 -96.7 c -10.9 -2.4 -22.5 -7.5 -30.7 -14.8 c -43.6 -39 -93.3 -52 -150.4 -40 a 53.4 53.4 0 0 1 -31.2 -3.3 c -49.3 -22.6 -98 -23 -147.8 -1.6 A 96.9 96.9 0 0 1 958 23.3 c -67.5 0.7 -121.8 25.7 -160.8 82.1 c -5.5 7.9 -14.4 14.7 -23.2 18.7 c -51.4 23.7 -80.8 62.4 -86.3 119.2 a 70.8 70.8 0 0 1 -9.6 28.6 c -33.7 56.2 -36.8 112 -1.3 168.7 c 0.4 0.6 0.7 1.3 1 1.9 A 36.3 36.3 0 0 1 688.8 442.2 Z" stroke-linecap="round"/>
</g>
		<g transform="matrix(1 0 0 1 10.9 58.5604)" id="Layer_1">
<linearGradient id="SVGID_40" gradientUnits="userSpaceOnUse" gradientTransform="matrix(1 0 0 1 0 0)" x1="657.14" y1="497.3" x2="1510.9" y2="497.3">
<stop offset="0%" style="stop-color:rgb(28,137,255);stop-opacity: 1"/>
<stop offset="100%" style="stop-color:rgb(108,63,240);stop-opacity: 1"/>
</linearGradient>
<path style="stroke: none; stroke-width: 1; stroke-dasharray: none; stroke-linecap: butt; stroke-dashoffset: 0; stroke-linejoin: miter; stroke-miterlimit: 4; is-custom-font: none; font-file-url: none; fill: url(#SVGID_40); fill-rule: nonzero; opacity: 1;" transform=" translate(-1105.9, -497.3054)" d="M 1494.7 324.3 L 1203 466.5 a 35.9 35.9 0 1 1 -71 1.2 L 956.2 390.9 a 36.3 36.3 0 0 1 -6.3 6.1 a 35.7 35.7 0 0 1 -21.3 7 a 36.9 36.9 0 0 1 -5.4 -0.4 a 35.5 35.5 0 0 1 -21.8 -12.2 L 719.2 474.3 a 35.7 35.7 0 0 1 -23.9 37.5 c 1.1 2.5 2.1 5 3.4 7.3 l 0 0 l 0.3 0.4 c 0.1 0.2 0.2 0.5 0.3 0.7 l 0.1 -0.1 c 1.9 3 8.3 12.6 13.4 19.6 l -0.1 0.1 c 0.3 0.3 0.5 0.5 0.8 0.8 l 0.4 0.6 h 0.1 c 21.6 24.9 53.3 41 91.2 44.3 c 34.2 3 67.9 10.9 103.8 16.9 c -2.5 17.8 -6.2 31.2 -5.6 44.4 c 0.3 6.5 8.3 12.6 12.8 18.9 c 10.8 8.4 56.5 3.2 75.9 0.9 c 6.2 -0.7 17.5 -9.2 22.5 -16.9 c 18.5 -28.5 34.5 -58.7 53.6 -86.8 c 2.4 -3.6 7.9 -6.5 13.6 -8.1 c 0 0 45.2 21.5 103.7 -8.6 c 6.9 -2.1 13.7 -4.4 20.6 -7.2 c 11.6 -4.7 26 -5.9 38.6 -4.3 c 56 7.1 107.9 1.3 151.3 -39.4 c 4.9 -4.6 12.2 -7.2 18.8 -9.3 c 52.5 -16.5 77.2 -46.4 83.7 -100.9 c 0 0 12.4 -31.5 18 -48.3 A 35.6 35.6 0 0 1 1494.7 324.3 Z" stroke-linecap="round"/>
</g>
		<g transform="matrix(1 0 0 1 -166.5 -70.695)" id="Layer_1">
<path style="stroke: none; stroke-width: 1; stroke-dasharray: none; stroke-linecap: butt; stroke-dashoffset: 0; stroke-linejoin: miter; stroke-miterlimit: 4; is-custom-font: none; font-file-url: none; fill: rgb(46,49,144); fill-rule: nonzero; opacity: 1;" transform=" translate(-928.5, -368.05)" d="M 928.5 384.3 a 16.5 16.5 0 0 1 -2.4 -0.2 a 16.2 16.2 0 0 1 2.4 -32.3 a 15.4 15.4 0 0 1 2.4 0.2 a 16.2 16.2 0 0 1 -2.4 32.3 Z" stroke-linecap="round"/>
</g>
		<g transform="matrix(1 0 0 1 -166.5637 -70.6461)" id="Layer_1">
<path style="stroke: none; stroke-width: 1; stroke-dasharray: none; stroke-linecap: butt; stroke-dashoffset: 0; stroke-linejoin: miter; stroke-miterlimit: 4; is-custom-font: none; font-file-url: none; fill: rgb(46,49,144); fill-rule: nonzero; opacity: 1;" transform=" translate(-928.4363, -368.0989)" d="M 940.6 369.9 h 0 a 12.3 12.3 0 0 0 -10.3 -14 a 12.9 12.9 0 0 0 -1.9 -0.1 a 12.3 12.3 0 1 0 12.2 14.1 Z" stroke-linecap="round"/>
</g>
		<g transform="matrix(1 0 0 1 72.2489 33.2955)" id="Layer_1">
<path style="stroke: none; stroke-width: 1; stroke-dasharray: none; stroke-linecap: butt; stroke-dashoffset: 0; stroke-linejoin: miter; stroke-miterlimit: 4; is-custom-font: none; font-file-url: none; fill: rgb(46,49,144); fill-rule: nonzero; opacity: 1;" transform=" translate(-1167.2489, -472.0404)" d="M 1167.6 488.3 a 16.5 16.5 0 0 1 -2.4 -0.2 a 16.2 16.2 0 0 1 2.4 -32.3 a 15.6 15.6 0 0 1 2.5 0.2 a 16.2 16.2 0 0 1 13.6 18.4 a 16.3 16.3 0 0 1 -16 13.8 Z" stroke-linecap="round"/>
</g>
		<g transform="matrix(1 0 0 1 72.6927 33.0311)" id="Layer_1">
<path style="stroke: none; stroke-width: 1; stroke-dasharray: none; stroke-linecap: butt; stroke-dashoffset: 0; stroke-linejoin: miter; stroke-miterlimit: 4; is-custom-font: none; font-file-url: none; fill: rgb(46,49,144); fill-rule: nonzero; opacity: 1;" transform=" translate(-1167.6927, -471.7761)" d="M 1179.8 473.9 a 12.3 12.3 0 0 0 -10.3 -14 a 13.2 13.2 0 0 0 -1.9 -0.1 a 12.3 12.3 0 0 0 -12.1 10.5 a 12.3 12.3 0 0 0 24.3 3.6 Z" stroke-linecap="round"/>
</g>
		<g transform="matrix(1 0 0 1 -411.5 39.005)" id="Layer_1">
<path style="stroke: none; stroke-width: 1; stroke-dasharray: none; stroke-linecap: butt; stroke-dashoffset: 0; stroke-linejoin: miter; stroke-miterlimit: 4; is-custom-font: none; font-file-url: none; fill: rgb(46,49,144); fill-rule: nonzero; opacity: 1;" transform=" translate(-683.5, -477.75)" d="M 683.5 494 a 16.3 16.3 0 0 1 -2.4 -0.2 a 16.2 16.2 0 0 1 2.4 -32.3 a 15.4 15.4 0 0 1 2.4 0.2 a 16.2 16.2 0 0 1 -2.4 32.3 Z" stroke-linecap="round"/>
</g>
		<g transform="matrix(1 0 0 1 -411.6029 39.377)" id="Layer_1">
<path style="stroke: none; stroke-width: 1; stroke-dasharray: none; stroke-linecap: butt; stroke-dashoffset: 0; stroke-linejoin: miter; stroke-miterlimit: 4; is-custom-font: none; font-file-url: none; fill: rgb(46,49,144); fill-rule: nonzero; opacity: 1;" transform=" translate(-683.3971, -478.122)" d="M 695.6 479.6 a 12.3 12.3 0 0 0 -10.3 -14 a 12.9 12.9 0 0 0 -1.9 -0.1 A 12.3 12.3 0 0 0 671.3 476 a 12.3 12.3 0 1 0 24.3 3.6 Z" stroke-linecap="round"/>
</g>
		<g transform="matrix(1 0 0 1 427.3 -137.395)" id="Layer_1">
<path style="stroke: none; stroke-width: 1; stroke-dasharray: none; stroke-linecap: butt; stroke-dashoffset: 0; stroke-linejoin: miter; stroke-miterlimit: 4; is-custom-font: none; font-file-url: none; fill: rgb(46,49,144); fill-rule: nonzero; opacity: 1;" transform=" translate(-1522.3, -301.35)" d="M 1522.3 317.6 a 16.3 16.3 0 0 1 -2.4 -0.2 a 16.2 16.2 0 0 1 2.4 -32.3 a 15.4 15.4 0 0 1 2.4 0.2 a 16.2 16.2 0 0 1 -2.4 32.3 Z" stroke-linecap="round"/>
</g>
		<g transform="matrix(1 0 0 1 427.3363 -137.3461)" id="Layer_1">
<path style="stroke: none; stroke-width: 1; stroke-dasharray: none; stroke-linecap: butt; stroke-dashoffset: 0; stroke-linejoin: miter; stroke-miterlimit: 4; is-custom-font: none; font-file-url: none; fill: rgb(46,49,144); fill-rule: nonzero; opacity: 1;" transform=" translate(-1522.3363, -301.3989)" d="M 1534.5 303.2 h 0 a 12.3 12.3 0 0 0 -10.3 -14 a 12.9 12.9 0 0 0 -1.9 -0.1 a 12.3 12.3 0 1 0 12.2 14.1 Z" stroke-linecap="round"/>
</g>
</g>
</g>
</svg>