<?xml version="1.0" encoding="iso-8859-1"?>
<!-- Uploaded to: SVG Repo, www.svgrepo.com, Generator: SVG Repo Mixer Tools -->
<!DOCTYPE svg PUBLIC "-//W3C//DTD SVG 1.1//EN" "http://www.w3.org/Graphics/SVG/1.1/DTD/svg11.dtd">
<svg fill="#000000" version="1.1" id="Capa_1" xmlns="http://www.w3.org/2000/svg" xmlns:xlink="http://www.w3.org/1999/xlink" 
	 width="800px" height="800px" viewBox="0 0 33.087 33.087"
	 xml:space="preserve">
<g>
	<g>
		<path d="M6.802,13.924c0.001,0,0.004,0,0.007,0c0.25,0.003,0.477,0.15,0.58,0.379l1.482,3.288l1.142-1.517
			c0.13-0.175,0.34-0.281,0.559-0.256c0.217,0.015,0.412,0.14,0.518,0.33l1.939,3.497l1.606-5.947
			c0.068-0.255,0.288-0.442,0.551-0.471c0.267-0.03,0.518,0.105,0.641,0.341l1.244,2.377l2.316-4.499
			c0.125-0.245,0.394-0.375,0.666-0.344c0.272,0.041,0.489,0.249,0.54,0.521l1.254,6.762l2.903-2.826
			c0.15-0.149,0.363-0.214,0.574-0.17c0.206,0.04,0.381,0.182,0.466,0.376l0.859,1.988l1.407-4.622
			c0.06-0.193,0.215-0.314,0.396-0.383c0.013-0.384,0.029-0.766-0.012-1.157c-0.698-6.77-8.258-6.665-11.898-3.399
			C12.902,4.926,5.347,4.822,4.645,11.591c-0.164,1.58,0.133,3.094,0.711,4.517l0.865-1.817C6.328,14.065,6.554,13.924,6.802,13.924
			z"/>
		<path d="M21.883,20.146c-0.17,0.164-0.419,0.223-0.645,0.152c-0.227-0.072-0.395-0.263-0.438-0.497l-1.13-6.092l-2.023,3.927
			c-0.109,0.213-0.329,0.348-0.568,0.349c-0.001,0-0.001,0-0.001,0c-0.24,0-0.459-0.134-0.571-0.345l-1.058-2.018l-1.591,5.893
			c-0.069,0.252-0.283,0.438-0.543,0.471c-0.027,0.003-0.053,0.005-0.078,0.005c-0.232,0-0.449-0.125-0.562-0.332l-2.229-4.019
			l-1.2,1.593c-0.137,0.185-0.358,0.276-0.585,0.253c-0.227-0.024-0.422-0.169-0.516-0.377L6.787,16.1l-0.711,1.494
			c3.192,5.625,10.468,9.468,10.468,9.468s5.849-3.095,9.359-7.791l-0.925-2.138L21.883,20.146z"/>
		<path d="M4.637,17.621l-1.6-1.185c-0.179-0.135-0.413-0.164-0.621-0.083L0.407,17.15c-0.331,0.13-0.492,0.504-0.362,0.834
			c0.131,0.334,0.505,0.494,0.835,0.362l1.678-0.664l1.94,1.436c0.155,0.114,0.352,0.153,0.539,0.108
			c0.188-0.047,0.343-0.175,0.425-0.348l0.612-1.286c-0.273-0.482-0.513-0.979-0.719-1.484L4.637,17.621z"/>
		<path d="M32.441,17.105h-1.912l-1.242-3.977c-0.084-0.271-0.333-0.451-0.614-0.451c-0.001,0-0.002,0-0.003,0
			c-0.081,0-0.146,0.044-0.217,0.072c-0.076,2.377-1.104,4.584-2.55,6.521l0.262,0.604c0.106,0.248,0.353,0.419,0.627,0.387
			c0.27-0.016,0.501-0.198,0.58-0.455l1.309-4.303l0.763,2.438c0.083,0.27,0.333,0.451,0.614,0.451h2.385
			c0.355,0,0.645-0.287,0.645-0.645C33.086,17.393,32.798,17.105,32.441,17.105z"/>
	</g>
</g>
</svg>