<svg xmlns="http://www.w3.org/2000/svg" xmlns:xlink="http://www.w3.org/1999/xlink" viewBox="0 0 2190 877.49">
    <defs>
        <style>
            .cls-1 {
                fill: #2e3190;
            }

            .cls-2 {
                fill: url(#linear-gradient);
            }

            .cls-3 {
                fill: url(#linear-gradient-2);
            }

            .cls-4 {
                fill: url(#linear-gradient-3);
            }

            .cls-5 {
                fill: url(#linear-gradient-4);
            }
        </style>
        <linearGradient id="linear-gradient" x1="657.14" y1="312.52" x2="1510.9" y2="312.52"
            gradientUnits="userSpaceOnUse">
            <stop offset="0" stop-color="#1c89ff" />
            <stop offset="1" stop-color="#6c3ff0" />
        </linearGradient>
        <linearGradient id="linear-gradient-2" x1="657.14" y1="295.35" x2="1510.9" y2="295.35"
            xlink:href="#linear-gradient" />
        <linearGradient id="linear-gradient-3" x1="657.14" y1="226.4" x2="1510.9" y2="226.4"
            xlink:href="#linear-gradient" />
        <linearGradient id="linear-gradient-4" x1="657.14" y1="497.3" x2="1510.9" y2="497.3"
            xlink:href="#linear-gradient" />
    </defs>
    <g id="Ebene_2" data-name="Ebene 2">
        <g id="Layer_1" data-name="Layer 1">
            <!-- <path class="cls-1"
                d="M 0 842.5 H 27 c 0.6 6.8 5.3 10.3 14 10.3 c 7.9 0 12.5 -3.1 12.5 -7.7 c 0 -5.3 -4.8 -8 -17.5 -10.1 c -20.7 -3.2 -34.8 -11.2 -34.8 -30.8 C 1.2 783.8 17.5 772 40.1 772 S 77.6 784.6 79 805 H 52.5 c -0.9 -6 -5.3 -9.2 -12.7 -9.2 s -11.7 2.8 -11.7 7.7 s 4.2 7.2 17.1 9.2 c 21.3 3.1 35.7 12 35.7 31.5 c 0 21.3 -17.1 32.8 -40 32.8 C 16.6 877 1 864.8 0 842.5 Z" />
            <path class="cls-1"
                d="M 188.8 773.5 h 22.2 V 875.6 H 183.5 V 846.1 l 0.3 -24 L 165 849.5 H 152 l -19 -27.6 l 0.4 24.2 V 875.6 h -27.4 V 773.5 h 22.3 l 30.3 44 Z" />
            <path class="cls-1"
                d="M 295.8 773.5 l 37.2 99 v 3.1 H 304.5 l -4.8 -15.8 H 266.8 l -5.1 15.8 H 233.5 v -3.1 l 37 -99 Z m -2.5 64.6 l -10.1 -28.9 l -10.1 28.9 Z" />
            <path class="cls-1" -->
                <!-- d="M 437 872.5 v 3.1 H 407 l -24.2 -36.2 V 875.6 H 355.5 V 773.5 H 394.3 c 23.9 0 38.3 13 38.3 34 c 0 14.6 -7.1 25.4 -19.7 30.2 Z m -54.4 -51.9 h 10.9 c 7.4 0 11.8 -3.8 11.8 -10.9 s -4.4 -11.1 -11.8 -11.1 H 382.6 Z" />
            <path class="cls-1" d="M 530.6 773.5 v 25.1 H 505.1 v 77 H 477.5 v -77 H 451.9 V 773.5 Z" />
            <path class="cls-1"
                d="M 687 773.5 h 22.2 V 875.6 h -27.4 V 846.1 l 0.3 -24 l -18.8 27.4 h -13 l -19 -27.6 l 0.4 24.2 V 875.6 h -27.4 V 773.5 h 22.3 l 30.3 44 Z" />
            <path class="cls-1"
                d="M 767.8 851.3 h 40.8 V 875.6 H 740.6 V 773.5 H 807.4 v 23.9 H 767.8 v 15.3 h 36.6 v 23.5 H 767.8 Z" />
            <path class="cls-1" d="M 908.6 773.5 v 25.1 H 883.1 v 77 H 855.5 v -77 H 829.9 V 773.5 Z" />
            <path class="cls-1"
                d="M 1014.8 872.5 v 3.1 h -30 l -24.2 -36.2 V 875.6 H 933.4 V 773.5 h 38.8 c 23.9 0 38.3 13 38.3 34 c 0 14.6 -7.1 25.4 -19.7 30.2 Z m -54.4 -51.9 H 971.4 c 7.4 0 11.8 -3.8 11.8 -10.9 s -4.4 -11.1 -11.8 -11.1 H 960.5 Z" />
            <path class="cls-1"
                d="M 1075.9 851.5 h 14.9 V 875.6 h -57.3 V 851.5 h 14.9 V 797.2 h -14.6 V 773.5 h 56.7 v 23.6 h -14.6 Z" /> -->
            <!-- <path class="cls-1"
                d="M 1112.9 824.6 c 0 -30.8 22 -52.9 52.6 -52.9 c 26.8 0 47.2 16.8 51.8 42.4 h -27.7 c -3.4 -9.9 -12.4 -16.2 -23.5 -16.2 c -14.6 0 -25.1 11.1 -25.1 26.7 s 10.5 26.7 25.1 26.7 c 11.4 0 20.7 -6.7 23.9 -17.2 h 27.6 c -4.2 26.2 -24.8 43.4 -52 43.4 C 1134.9 877.5 1112.9 855.3 1112.9 824.6 Z" />
            <path class="cls-1"
                d="M 1237.6 842.5 h 27 c 0.6 6.8 5.3 10.3 14 10.3 c 7.9 0 12.5 -3.1 12.5 -7.7 c 0 -5.3 -4.8 -8 -17.5 -10.1 c -20.7 -3.2 -34.8 -11.2 -34.8 -30.8 c 0 -20.6 16.3 -32.4 38.9 -32.4 c 22.4 0 37.5 12.7 38.9 33.1 H 1290 c -0.9 -6 -5.3 -9.2 -12.7 -9.2 s -11.7 2.8 -11.7 7.7 s 4.2 7.2 17.1 9.2 c 21.3 3.1 35.7 12 35.7 31.5 c 0 21.3 -17.1 32.8 -40 32.8 C 1254.2 877 1238.6 864.8 1237.6 842.5 Z" />
            <path class="cls-1" d="M 1421.5 850.1 h 41.8 V 875.6 h -69.2 V 773.5 h 27.4 Z" />
            <path class="cls-1"
                d="M 1482.4 824.6 c 0 -30.8 22.4 -52.9 53.9 -52.9 c 31.3 0 53.8 22.2 53.8 52.9 s -22.4 52.9 -53.8 52.9 C 1504.9 877.5 1482.4 855.3 1482.4 824.6 Z m 79.6 0 c 0 -15.6 -10.8 -26.7 -25.7 -26.7 s -25.8 11.1 -25.8 26.7 s 10.9 26.7 25.8 26.7 S 1562 840.2 1562 824.6 Z" />
            <path class="cls-1"
                d="M 1717 819 c 1.6 34.8 -20.3 58.5 -52.5 58.5 c -31 0 -53.1 -22 -53.1 -52.9 s 21.9 -52.9 52.5 -52.9 c 26.4 0 46.6 15.3 51.8 39.1 h -27.8 c -4.5 -8.6 -12.3 -13 -22.5 -13 c -15.3 0 -25.9 10.9 -25.9 27 s 10.2 26.8 26.4 26.8 c 10.1 0 17.8 -4.1 21.7 -12.5 H 1660 V 819 Z" />
            <path class="cls-1"
                d="M 1821.9 846.3 c 0 17.5 -13.3 29.3 -33.8 29.3 h -45 V 773.5 h 44.3 c 18.1 0 30.5 11.1 30.5 27.7 a 26 26 0 0 1 -9.5 20.6 A 28.2 28.2 0 0 1 1821.9 846.3 Z M 1769.2 796 v 16.3 H 1783 c 5.7 0 8.9 -2.9 8.9 -8 S 1788.7 796 1783 796 Z m 16.6 56.1 c 5.7 0 9 -3.6 9 -9.2 s -3.4 -9.2 -9 -9.2 h -16.6 v 18.4 Z" />
            <path class="cls-1"
                d="M 1842.2 824.6 c 0 -30.8 22.4 -52.9 53.9 -52.9 c 31.3 0 53.8 22.2 53.8 52.9 s -22.5 52.9 -53.8 52.9 C 1864.6 877.5 1842.2 855.3 1842.2 824.6 Z m 79.6 0 c 0 -15.6 -10.8 -26.7 -25.7 -26.7 s -25.8 11.1 -25.8 26.7 s 10.9 26.7 25.8 26.7 S 1921.8 840.2 1921.8 824.6 Z" />
            <path class="cls-1"
                d="M 1971.2 824.6 c 0 -30.8 22.4 -52.9 53.9 -52.9 c 31.3 0 53.8 22.2 53.8 52.9 s -22.4 52.9 -53.8 52.9 C 1993.7 877.5 1971.2 855.3 1971.2 824.6 Z m 79.6 0 c 0 -15.6 -10.8 -26.7 -25.7 -26.7 s -25.8 11.1 -25.8 26.7 s 10.9 26.7 25.8 26.7 S 2050.8 840.2 2050.8 824.6 Z" />
            <path class="cls-1"
                d="M 2156.3 823.5 l 33.7 49 v 3.1 h -31.2 l -26 -39.6 V 875.6 H 2105.3 V 773.5 h 27.6 v 39.4 l 25.2 -39.4 H 2188 v 3.1 Z" /> -->
            <polygon class="cls-2"
                points="1226,205.4 1206,205.4 1193.6,205.4 1170.8,205.4 1053.2,407.4 1081.2,419.6 1202.2,212 1226,205.4" />
            <polygon class="cls-3"
                points="1128.9,205.4 1107.3,205.4 1096.4,205.4 1067.3,205.4 970.6,371.4 1002.5,385.3 1103.2,212.5 1128.9,205.4" />
            <path class="cls-4"
                d="M 688.8 442.2 a 35.5 35.5 0 0 1 20.3 10.6 L 756 364 l 75.3 -33.1 l 19.5 -33.6 l 23.6 -6.5 H 854.5 l 0 0 H 753.2 l 81.5 -140.3 l 165.1 0 l -32 54.9 H 866.3 L 848.6 235.8 H 950.2 L 864.8 382.1 l 27.7 -12.6 a 35.6 35.6 0 0 1 37.3 -37.2 l 105.9 -181.7 h 265.7 l -169.6 291.2 l 10.8 4.7 a 36.6 36.6 0 0 1 3.6 -3.3 a 35.8 35.8 0 0 1 26.7 -6.7 c 0.4 0.1 0.8 0.2 1.2 0.3 l 168.1 -286.3 h 63.5 L 1317 303 l -10.6 18.1 l -12.2 20.9 l 23.5 -20.9 h 89.1 l -15.9 27.4 L 1486.5 302 a 36.3 36.3 0 0 1 0.3 -5.9 a 36 36 0 0 1 33.8 -30.6 c -4.6 -16.4 -13.3 -32.6 -26 -48.7 a 173.7 173.7 0 0 1 -25 -44.6 c -20.8 -53.8 -59.8 -84.3 -115.2 -96.7 c -10.9 -2.4 -22.5 -7.5 -30.7 -14.8 c -43.6 -39 -93.3 -52 -150.4 -40 a 53.4 53.4 0 0 1 -31.2 -3.3 c -49.3 -22.6 -98 -23 -147.8 -1.6 A 96.9 96.9 0 0 1 958 23.3 c -67.5 0.7 -121.8 25.7 -160.8 82.1 c -5.5 7.9 -14.4 14.7 -23.2 18.7 c -51.4 23.7 -80.8 62.4 -86.3 119.2 a 70.8 70.8 0 0 1 -9.6 28.6 c -33.7 56.2 -36.8 112 -1.3 168.7 c 0.4 0.6 0.7 1.3 1 1.9 A 36.3 36.3 0 0 1 688.8 442.2 Z" />
            <path class="cls-5"
                d="M 1494.7 324.3 L 1203 466.5 a 35.9 35.9 0 1 1 -71 1.2 L 956.2 390.9 a 36.3 36.3 0 0 1 -6.3 6.1 a 35.7 35.7 0 0 1 -21.3 7 a 36.9 36.9 0 0 1 -5.4 -0.4 a 35.5 35.5 0 0 1 -21.8 -12.2 L 719.2 474.3 a 35.7 35.7 0 0 1 -23.9 37.5 c 1.1 2.5 2.1 5 3.4 7.3 l 0 0 l 0.3 0.4 c 0.1 0.2 0.2 0.5 0.3 0.7 l 0.1 -0.1 c 1.9 3 8.3 12.6 13.4 19.6 l -0.1 0.1 c 0.3 0.3 0.5 0.5 0.8 0.8 l 0.4 0.6 h 0.1 c 21.6 24.9 53.3 41 91.2 44.3 c 34.2 3 67.9 10.9 103.8 16.9 c -2.5 17.8 -6.2 31.2 -5.6 44.4 c 0.3 6.5 8.3 12.6 12.8 18.9 c 10.8 8.4 56.5 3.2 75.9 0.9 c 6.2 -0.7 17.5 -9.2 22.5 -16.9 c 18.5 -28.5 34.5 -58.7 53.6 -86.8 c 2.4 -3.6 7.9 -6.5 13.6 -8.1 c 0 0 45.2 21.5 103.7 -8.6 c 6.9 -2.1 13.7 -4.4 20.6 -7.2 c 11.6 -4.7 26 -5.9 38.6 -4.3 c 56 7.1 107.9 1.3 151.3 -39.4 c 4.9 -4.6 12.2 -7.2 18.8 -9.3 c 52.5 -16.5 77.2 -46.4 83.7 -100.9 c 0 0 12.4 -31.5 18 -48.3 A 35.6 35.6 0 0 1 1494.7 324.3 Z" />
            <path class="cls-1"
                d="M 928.5 384.3 a 16.5 16.5 0 0 1 -2.4 -0.2 a 16.2 16.2 0 0 1 2.4 -32.3 a 15.4 15.4 0 0 1 2.4 0.2 a 16.2 16.2 0 0 1 -2.4 32.3 Z" />
            <path class="cls-1"
                d="M 940.6 369.9 h 0 a 12.3 12.3 0 0 0 -10.3 -14 a 12.9 12.9 0 0 0 -1.9 -0.1 a 12.3 12.3 0 1 0 12.2 14.1 Z" />
            <path class="cls-1"
                d="M 1167.6 488.3 a 16.5 16.5 0 0 1 -2.4 -0.2 a 16.2 16.2 0 0 1 2.4 -32.3 a 15.6 15.6 0 0 1 2.5 0.2 a 16.2 16.2 0 0 1 13.6 18.4 a 16.3 16.3 0 0 1 -16 13.8 Z" />
            <path class="cls-1"
                d="M 1179.8 473.9 a 12.3 12.3 0 0 0 -10.3 -14 a 13.2 13.2 0 0 0 -1.9 -0.1 a 12.3 12.3 0 0 0 -12.1 10.5 a 12.3 12.3 0 0 0 24.3 3.6 Z" />
            <path class="cls-1"
                d="M 683.5 494 a 16.3 16.3 0 0 1 -2.4 -0.2 a 16.2 16.2 0 0 1 2.4 -32.3 a 15.4 15.4 0 0 1 2.4 0.2 a 16.2 16.2 0 0 1 -2.4 32.3 Z" />
            <path class="cls-1"
                d="M 695.6 479.6 a 12.3 12.3 0 0 0 -10.3 -14 a 12.9 12.9 0 0 0 -1.9 -0.1 A 12.3 12.3 0 0 0 671.3 476 a 12.3 12.3 0 1 0 24.3 3.6 Z" />
            <path class="cls-1"
                d="M 1522.3 317.6 a 16.3 16.3 0 0 1 -2.4 -0.2 a 16.2 16.2 0 0 1 2.4 -32.3 a 15.4 15.4 0 0 1 2.4 0.2 a 16.2 16.2 0 0 1 -2.4 32.3 Z" />
            <path class="cls-1"
                d="M 1534.5 303.2 h 0 a 12.3 12.3 0 0 0 -10.3 -14 a 12.9 12.9 0 0 0 -1.9 -0.1 a 12.3 12.3 0 1 0 12.2 14.1 Z" />
        </g>
    </g>
</svg>