<?xml version="1.0" encoding="iso-8859-1"?>
<!-- Uploaded to: SVG Repo, www.svgrepo.com, Generator: SVG Repo Mixer Tools -->
<!DOCTYPE svg PUBLIC "-//W3C//DTD SVG 1.1//EN" "http://www.w3.org/Graphics/SVG/1.1/DTD/svg11.dtd">
<svg fill="#000000" version="1.1" id="Capa_1" xmlns="http://www.w3.org/2000/svg" xmlns:xlink="http://www.w3.org/1999/xlink" 
	 width="800px" height="800px" viewBox="0 0 31.746 31.746"
	 xml:space="preserve">
<g>
	<g>
		<path d="M11.614,25.866c-0.557,0-1.039-0.248-1.152-0.793L8.901,17.6l-1.028,1.774c-0.211,0.359-0.597,0.613-1.012,0.613H1.176
			C0.527,19.987,0,19.46,0,18.813c0-0.65,0.527-1.178,1.176-1.178h5.013l2.235-3.777c0.247-0.417,0.721-0.644,1.205-0.562
			c0.479,0.08,0.86,0.446,0.958,0.921l0.945,4.566l2.155-11.956c0.101-0.56,0.588-0.949,1.158-0.949c0.001,0,0.004,0,0.005,0
			c0.571,0,1.058,0.396,1.154,0.958l2.3,13.421l0.74-1.875c0.176-0.45,0.61-0.749,1.093-0.749H30.57
			c0.649,0,1.176,0.526,1.176,1.177c0,0.648-0.526,1.176-1.176,1.176h-9.635l-1.99,5.029c-0.192,0.49-0.682,0.787-1.215,0.737
			c-0.522-0.056-0.947-0.452-1.037-0.972l-1.876-10.965l-2.046,11.225c-0.1,0.555-0.579,0.824-1.142,0.824
			C11.624,25.866,11.619,25.866,11.614,25.866z"/>
	</g>
</g>
</svg>